<svg width="24" height="24" viewBox="0 0 24 24" fill="none" xmlns="http://www.w3.org/2000/svg">
<path d="M11.0865 12.4552C11.076 13.116 10.6103 13.653 10.0065 13.653C9.41475 13.653 8.92575 13.116 8.92575 12.4552C8.92575 11.7945 9.3975 11.253 10.0042 11.253C10.611 11.253 11.0963 11.7945 11.0858 12.4552H11.0865ZM13.9935 11.253C13.386 11.253 12.9135 11.7945 12.9135 12.4552C12.9135 13.116 13.4003 13.653 13.9935 13.653C14.5965 13.653 15.0623 13.116 15.072 12.4552C15.0818 11.7945 14.601 11.253 13.9935 11.253ZM22.5 12.0007C22.5 17.7997 17.799 22.5007 12 22.5007C6.201 22.5007 1.5 17.799 1.5 12C1.5 6.201 6.201 1.5 12 1.5C17.799 1.5 22.5 6.201 22.5 12V12.0007ZM16.1655 8.21475C15.3773 7.854 14.5448 7.5975 13.6898 7.45275C13.5728 7.662 13.467 7.87725 13.3725 8.097C12.462 7.95975 11.5357 7.95975 10.6252 8.097C10.5308 7.8765 10.425 7.66125 10.308 7.45275C9.45225 7.59825 8.61975 7.8555 7.83075 8.21625C6.264 10.5345 5.8395 12.795 6.05175 15.0233C6.969 15.7013 7.9965 16.2165 9.08775 16.5472C9.33375 16.2165 9.55125 15.8655 9.738 15.4988C9.38325 15.366 9.0405 15.2025 8.71425 15.0098C8.8005 14.9475 8.8845 14.883 8.9655 14.8207C10.8878 15.7252 13.1138 15.7252 15.036 14.8207C15.1178 14.8875 15.2017 14.952 15.2872 15.0098C14.9602 15.2025 14.6167 15.3668 14.2612 15.4995C14.448 15.8663 14.6655 16.2172 14.9115 16.5472C16.0042 16.218 17.0318 15.7027 17.9498 15.024C18.1987 12.4395 17.5238 10.2 16.1663 8.214L16.1655 8.21475Z" fill="#585B58"/>
</svg>
